inDegrees=no
num_controls=7
num_derivatives=13
num_iterations=91
num_multipliers=7
num_parameters=0
num_slacks=7
num_states=26
objective=0.409091
objective_accelerations=0.031769
objective_balance=0.006257
objective_effort=0.028055
objective_height=0.338036
objective_ligament=0.004974
solver_duration=1251.801415
status=Solve_Succeeded
success=true
DataType=double
version=3
OpenSimVersion=4.5
endheader
time	/jointset/ground_pelvis/pelvis_tilt/value	/jointset/ground_pelvis/pelvis_tx/value	/jointset/ground_pelvis/pelvis_ty/value	/jointset/hip_l/hip_flexion_l/value	/jointset/hip_l/hip_adduction_l/value	/jointset/hip_l/hip_rotation_l/value	/jointset/back/lumbar_extension/value	/jointset/patellofemoral_l/patellar_flexion_l/value	/jointset/knee_l/knee_flexion_l/value	/jointset/knee_l/knee_adduction_l/value	/jointset/knee_l/knee_rotation_l/value	/jointset/ankle_l/ankle_angle_l/value	/jointset/subtalar_l/subtalar_angle_l/value	/jointset/ground_pelvis/pelvis_tilt/speed	/jointset/ground_pelvis/pelvis_tx/speed	/jointset/ground_pelvis/pelvis_ty/speed	/jointset/hip_l/hip_flexion_l/speed	/jointset/hip_l/hip_adduction_l/speed	/jointset/hip_l/hip_rotation_l/speed	/jointset/back/lumbar_extension/speed	/jointset/patellofemoral_l/patellar_flexion_l/speed	/jointset/knee_l/knee_flexion_l/speed	/jointset/knee_l/knee_adduction_l/speed	/jointset/knee_l/knee_rotation_l/speed	/jointset/ankle_l/ankle_angle_l/speed	/jointset/subtalar_l/subtalar_angle_l/speed	/forceset/tau_hip_flexion_l	/forceset/tau_hip_adduction_l	/forceset/tau_hip_rotation_l	/forceset/tau_knee_flexion_l	/forceset/tau_ankle_angle_l	/forceset/tau_subtalar_angle_l	/forceset/tau_lumbar_extension	lambda_cid13_p0	lambda_cid13_p1	lambda_cid13_p2	lambda_cid13_p3	lambda_cid13_p4	lambda_cid13_p5	lambda_cid14_p0	/jointset/ground_pelvis/pelvis_tilt/accel	/jointset/ground_pelvis/pelvis_tx/accel	/jointset/ground_pelvis/pelvis_ty/accel	/jointset/hip_l/hip_flexion_l/accel	/jointset/hip_l/hip_adduction_l/accel	/jointset/hip_l/hip_rotation_l/accel	/jointset/back/lumbar_extension/accel	/jointset/patellofemoral_l/patellar_flexion_l/accel	/jointset/knee_l/knee_flexion_l/accel	/jointset/knee_l/knee_adduction_l/accel	/jointset/knee_l/knee_rotation_l/accel	/jointset/ankle_l/ankle_angle_l/accel	/jointset/subtalar_l/subtalar_angle_l/accel	gamma_cid13_p0	gamma_cid13_p1	gamma_cid13_p2	gamma_cid13_p3	gamma_cid13_p4	gamma_cid13_p5	gamma_cid14_p0
0.5	-0.3562199324170367	-0.03343780299582232	0.8052590019218026	1.034686219508458	-0.3056839676822628	-0.08401878495816559	-0.3035789099635218	0.5724998168197637	0.5724998168195441	-0.1734214832527442	0.1742363783081089	0.05645238519265933	-0.03959258176812656	-0.5147093213737254	-0.2033200861939428	-0.3395848074366202	1.784630130769054	-0.05280931033072474	0.5180541635665565	-0.6326445913032932	1.479776350232243	1.479776350231573	-0.003183868050921819	0.0008086049228065027	0.2884984023812034	-0.01299488758709782	-0.1898407386570451	0.02947210860927644	-0.02182294776028322	-0.2007990509431629	0.1159289671328989	0.03167146451110076	0.1837502455109918	-1.990775183140602	-17.14064801310552	6.59573935289598	-0.5477966451303932	-609.8362727571731	-55.43116758219314	-34.44366067164411	0.333230270207672	0.402185563150992	-0.2566412250660768	-0.9532020635481355	0.4260211409065374	-0.2402435599804726	1.196362679515991	-0.7883641331537511	-0.7883641331537412	-0.01316765527166283	-0.0165953990001334	-0.11371425734684	0.396574706846992	-1.460344101097233e-08	-8.59105505176331e-07	1.854278113540976e-07	-1.022427549321568e-07	-1.005761393738954e-07	-2.308985495473617e-07	-1.089381552707898e-07
0.51	-0.3613493857402806	-0.03545059344790201	0.8018509920665784	1.05248184473153	-0.3061914412971311	-0.07885190775803635	-0.3098449556122161	0.5872560622613449	0.5872560622610437	-0.1734547828183431	0.1742449361742836	0.05933103809539653	-0.03970346083823131	-0.5111148543181153	-0.199212613084878	-0.3419496857760335	1.774246698678716	-0.04869191304235999	0.5152514566122793	-0.6204768339097866	1.471264756252399	1.471264756252139	-0.003471613672153353	0.000902105170270981	0.287187331504211	-0.009189087088981956	-0.1962521546321212	0.03060236890146655	-0.02184420467291552	-0.2018464036408931	0.1146090933369953	0.03242525611644734	0.1889255783728126	-2.552545585744761	-17.27561157931806	6.509832827573075	-0.4527206994796116	-612.7992368374129	-55.09571712638877	-33.74516995191112	0.3825228896898637	0.4188169678197979	-0.2163097324087558	-1.118152526217631	0.4037002009198505	-0.3108717592634532	1.240137948047281	-0.913732577247042	-0.9137325771854328	-0.03604314457307817	0.02212458948686179	-0.1465400650167101	0.3714694839793594	-1.94322018378834e-08	-8.250217784201683e-07	1.893778272446944e-07	-9.618144245577539e-08	-1.002154034037583e-07	-2.191464156792677e-07	-1.074454508543015e-07
0.52	-0.3664409007996759	-0.0374215514122838	0.7984213537091541	1.070166187884812	-0.3066579207034929	-0.07371517512667282	-0.3159866925512191	0.6019209566537571	0.6019209566533793	-0.1734908528659541	0.1742543894135115	0.06219523297693533	-0.03977650455081778	-0.507121668604425	-0.1949535886543637	-0.3439105078766358	1.762373716810741	-0.04461046862925753	0.5120252498135169	-0.6077828493651155	1.461506140398665	1.461506140398816	-0.003737964454352846	0.0009876795324197721	0.2856067981415681	-0.005427816083446957	-0.2026635706072	0.0317326291936531	-0.02186546158550632	-0.2028937563386307	0.1132892195410896	0.03317904772178969	0.1941009112346323	-3.122544949404939	-17.41079726543355	6.425861261644636	-0.3427085290278297	-615.8904897819465	-54.80184466986918	-33.02448672709786	0.4129740018236551	0.4324958274409528	-0.1758299773038416	-1.25111201907548	0.4188305658540815	-0.3249435288775405	1.301608109748853	-1.037768507931589	-1.037768507931586	-0.008888687465265041	-0.01818057606326517	-0.1676067544768713	0.3876688083308297	-2.36796983202859e-08	-7.83253906558578e-07	1.927865778663915e-07	-8.960097179375985e-08	-9.793435144307598e-08	-2.055891444477248e-07	-1.050329080879423e-07
0.53	-0.3714905434738821	-0.03934918209477512	0.7949741653399648	1.087724429029282	-0.3070837663817345	-0.06861273665475877	-0.3219988615377173	0.6164820802835425	0.6164820802832599	-0.1735294043671255	0.174264579622248	0.06504233442119664	-0.03981214988649368	-0.5027428581987695	-0.190548796672555	-0.3454556411180019	1.749028190643126	-0.0405671809886379	0.5083880723022638	-0.5945657357537619	1.450515322901123	1.450515322901101	-0.003961931157014836	0.001053065427023287	0.2837739827057109	-0.00171037853373859	-0.2090058248288706	0.03273535988955394	-0.0219250980985401	-0.2040294758485326	0.112181559528174	0.0338285684099079	0.1992216036454336	-3.629184252771678	-17.51260663798053	6.337499074364895	-0.2882687353627751	-619.0263968436115	-54.46722162561876	-32.28453071098546	0.4599294157666048	0.4480163304860087	-0.1331456182917793	-1.41322863165524	0.3958642126154955	-0.3943693133302237	1.344544813860686	-1.160207016148962	-1.160207016174911	-0.02770618147444986	0.01923752162282199	-0.1970546022939044	0.3625090572315299	-2.734798785597785e-08	-7.412870748521059e-07	1.942905775254485e-07	-8.319797546490686e-08	-9.513167370185391e-08	-1.918473295712723e-07	-1.022727384821829e-07
0.54	-0.3764944790728637	-0.04123205576806121	0.7915136675142143	1.105141823768866	-0.3074694219136808	-0.06354892284817334	-0.3278763030226954	0.6309272020092561	0.6309272020090657	-0.1735699066392834	0.1742754915598118	0.06786992057826848	-0.03981087528088433	-0.497980253559917	-0.1860021868133168	-0.3465723991889144	1.734204435833484	-0.03657243937003377	0.5043003167477693	-0.5808373490611314	1.438305759584244	1.438305759584048	-0.004128118651988617	0.00113202529765313	0.2817037407037039	0.001956172173597526	-0.215348079050543	0.03373809058545318	-0.02198473461156439	-0.205165195358436	0.1110738995152578	0.03447808909802429	0.2043422960562336	-4.143672907888296	-17.61488500665983	6.251317281655188	-0.2218538727682317	-622.2861129373393	-54.17333442065925	-31.52826520047223	0.4897328484629889	0.4608594029268809	-0.09015494321310481	-1.546757747480844	0.4091213614509794	-0.4150591375258003	1.403862726004236	-1.281517671798998	-1.281517671799131	0.002667154072367873	-0.01546578085799486	-0.2150920677067931	0.3774914398563906	-3.03754526846709e-08	-6.991001173598074e-07	1.936871931407334e-07	-7.699133371742517e-08	-9.175187807577936e-08	-1.779013387472603e-07	-9.912796045836375e-08
0.55	-0.3814489102454013	-0.04306880757247696	0.7880441646552612	1.122403697199231	-0.3078154232090586	-0.058528009518233	-0.3336139517034724	0.6452441732445261	0.6452441732443523	-0.173611875748206	0.1742870889291028	0.07067561681657099	-0.03977324722256608	-0.492842889134222	-0.1813292203269878	-0.3472543408703722	1.717928665281995	-0.03264398850966373	0.4998194070624715	-0.5666141809660262	1.424888603667969	1.424888603668158	-0.004268183525784985	0.001184391013682587	0.2793952025099603	0.005551925429807639	-0.2216518679768033	0.03463906213082155	-0.0220540940930147	-0.206212113851046	0.1098576587975599	0.03507649579770698	0.2094040445451544	-4.693217872187526	-17.68922856362789	6.161141157484859	-0.1045349450536668	-625.5139170481069	-53.84270005234002	-30.75856623024628	0.5351950400609286	0.4733436118712438	-0.04615700256027443	-1.704232574245957	0.3823336575597813	-0.4741491810519915	1.443274770420911	-1.40177763932715	-1.401777639269462	-0.02281826870099297	0.01506689290434904	-0.2447896115183685	0.3480739884180564	-3.258292794592345e-08	-6.527223208910014e-07	1.92492659199392e-07	-7.06622728792263e-08	-8.713613253119293e-08	-1.632443421663079e-07	-9.527392029635951e-08
